<svg preserveAspectRatio="xMidYMid meet" data-bbox="20 38 160 124" viewBox="20 38 160 124" height="200" width="200" xmlns="http://www.w3.org/2000/svg" data-type="shape" role="presentation" aria-hidden="true" aria-labelledby="svgcid--1jspyg-wn0nge"><title id="svgcid--1jspyg-wn0nge"></title>
  <g>
      <path d="M53.654 162H25.989A5.989 5.989 0 0 1 20 156.011v-45.346a5.989 5.989 0 0 1 5.989-5.989h27.664a5.989 5.989 0 0 1 5.989 5.989v45.346A5.988 5.988 0 0 1 53.654 162z" fill="#9E3FFD"></path>
      <path d="M113.832 162H86.168a5.989 5.989 0 0 1-5.989-5.989V78.267a5.989 5.989 0 0 1 5.989-5.989h27.664a5.989 5.989 0 0 1 5.989 5.989v77.744a5.989 5.989 0 0 1-5.989 5.989z" fill="#9E3FFD"></path>
      <path d="M174.011 162h-27.664a5.989 5.989 0 0 1-5.989-5.989V43.989A5.989 5.989 0 0 1 146.347 38h27.664A5.989 5.989 0 0 1 180 43.989v112.022a5.989 5.989 0 0 1-5.989 5.989z" fill="#9E3FFD"></path>
  </g>
</svg>
