<svg
  preserveAspectRatio="xMidYMid meet"
  data-bbox="20 47 160.001 106"
  viewBox="20 47 160.001 106"
  height="200"
  width="200"
  xmlns="http://www.w3.org/2000/svg"
  data-type="shape"
  role="presentation"
  aria-hidden="true"
  aria-labelledby="svgcid-8985etroe6wf"
>
  <title id="svgcid-8985etroe6wf"></title>
  <g>
      <path d="M167.899 63.925L137.648 75.95V59.025c0-6.641-5.418-12.025-12.101-12.025H32.101C25.416 47 20 52.384 20 59.025v81.95C20 147.616 25.416 153 32.101 153h93.447c6.683 0 12.101-5.384 12.101-12.025V124.05l30.251 12.025c6.684 0 12.101-5.384 12.101-12.025v-48.1c-.001-6.641-5.418-12.025-12.102-12.025zm-42.351 77.05H32.101v-81.95h93.447v81.95zm42.351-16.925l-30.251-12.025v-24.05l30.251-12.025v48.1z" clip-rule="evenodd" fill-rule="evenodd" fill="#9E3FFD"></path>
  </g>
</svg>
