<svg preserveAspectRatio="xMidYMid meet" data-bbox="29.5 36 141 128" viewBox="29.5 36 141 128" height="200" width="200" xmlns="http://www.w3.org/2000/svg" data-type="color" role="presentation" aria-hidden="true" aria-labelledby="svgcid--fetlbr672nel"><defs><style>#comp-kq5dfsf71 svg [data-color="1"] {fill: #9E3FFD;}</style></defs><title id="svgcid--fetlbr672nel"></title>
  <g>
      <path d="M166.5 36h-39.9c-11.385 0-21.33 6.268-26.6 15.536C94.73 42.268 84.785 36 73.4 36H33.5a4 4 0 0 0-4 4v100a4 4 0 0 0 4 4h46.55c8.795 0 15.95 7.178 15.95 16a4 4 0 0 0 8 0c0-8.822 7.155-16 15.95-16h46.55a4 4 0 0 0 4-4V40a4 4 0 0 0-4-4zM96 142.111C91.762 138.312 86.17 136 80.05 136H37.5V44h35.9C85.862 44 96 54.168 96 66.667v75.444zM162.5 136h-42.55c-6.12 0-11.712 2.312-15.95 6.111V66.667C104 54.168 114.138 44 126.6 44h35.9v92z" fill="#9E3FFD" data-color="1"></path>
  </g>
</svg>
